<svg width="53" height="53" viewBox="0 0 53 53" fill="none" xmlns="http://www.w3.org/2000/svg">
<path d="M12.4205 36.4768C11.7709 36.9236 11.6025 37.8163 12.0966 38.4306C14.4876 41.4027 17.7248 43.5971 21.3956 44.712C25.5231 45.9655 29.9541 45.7798 33.9622 44.1852C37.9704 42.5907 41.318 39.6819 43.4565 35.9356C45.595 32.1893 46.3974 27.8277 45.7324 23.5656C45.0674 19.3035 42.9743 15.3937 39.7961 12.477C36.618 9.5603 32.5433 7.80967 28.2399 7.51202C23.9365 7.21438 19.6596 8.38738 16.1102 10.8388C12.9535 13.019 10.5387 16.0953 9.1669 19.6545C8.88336 20.3901 9.31578 21.1891 10.0706 21.4167C10.8254 21.6444 11.6159 21.2139 11.9092 20.4821C13.0876 17.5412 15.1086 15.0003 17.7327 13.188C20.7497 11.1043 24.385 10.1072 28.0429 10.3602C31.7008 10.6132 35.1643 12.1013 37.8657 14.5805C40.5671 17.0597 42.3463 20.383 42.9115 24.0058C43.4768 27.6286 42.7947 31.3359 40.977 34.5203C39.1593 37.7046 36.3138 40.1771 32.9069 41.5325C29.4999 42.8878 25.7337 43.0457 22.2253 41.9802C19.1738 41.0534 16.4748 39.249 14.4564 36.8069C13.9542 36.1992 13.0701 36.0301 12.4205 36.4768Z" fill="#233255" fill-opacity="0.75"/>
<path d="M22.1455 18.1945L36.5888 26.5334L22.1455 34.8722L22.1455 18.1945Z" fill="#233255" fill-opacity="0.75"/>
</svg>
