<svg width="27" height="19" viewBox="0 0 27 19" fill="none" xmlns="http://www.w3.org/2000/svg">
<path d="M7.3173 9.77532C9.06408 9.77532 10.4801 8.35927 10.4801 6.6125C10.4801 4.86572 9.06408 3.44968 7.3173 3.44968C5.57052 3.44968 4.15448 4.86572 4.15448 6.6125C4.15448 8.35927 5.57052 9.77532 7.3173 9.77532Z" stroke="#FDFDF5" stroke-linecap="round" stroke-linejoin="round"/>
<path d="M23.0769 4.50738V13.7144M13.9705 15.4458V16.5292C13.9709 16.6677 13.9438 16.805 13.8909 16.9331C13.8381 17.0612 13.7604 17.1776 13.6624 17.2756C13.5644 17.3735 13.4481 17.4512 13.32 17.5041C13.1919 17.5569 13.0546 17.584 12.916 17.5837H2.05449C1.91592 17.584 1.77864 17.5569 1.65056 17.5041C1.52247 17.4512 1.40609 17.3735 1.3081 17.2756C1.21012 17.1776 1.13246 17.0612 1.07958 16.9331C1.02671 16.805 0.999665 16.6677 1 16.5292V15.4458C2.38398 10.9458 13.1622 11.717 13.9705 15.4458ZM14.3064 7.49776V10.7234V7.49776ZM17.2301 4.50738V13.7144V4.50738ZM20.1538 1.41635V16.8055V1.41635ZM26 7.49776V10.7234V7.49776Z" stroke="#FDFDF5" stroke-linecap="round" stroke-linejoin="round"/>
</svg>
